  <svg
    id="Calque_1"
    data-name="Calque 1"
    xmlns="http://www.w3.org/2000/svg"
    width="100%"
    viewBox="0 0 1080 1079.58"
  >
    <path
      class="cls-1"
      fill="none"
      d="M0,540V4.74C0,1,.42.16,4.58.16H1075c4.17,0,5,.83,5,5V1074.74c0,3.75-.42,5-4.58,5H5.83c-4.16,0-5-1.25-5-5Q-.41,807.35,0,540Zm992.12,53.31a13.43,13.43,0,0,0-1.67,1.25,45.15,45.15,0,0,0-3.33,6.25C948,669.48,896.74,727.38,830.51,771.53c-87,57.47-183.68,85.38-287,90.38-41.65,2.08-82.88-1.25-124.12-8.75a503.77,503.77,0,0,1-145.78-50c-22.9-12.08-45.81-24.57-64.55-42.9-56.65-55-86.64-122.87-95.38-200.75A374.85,374.85,0,0,1,115,462.9c3.74-25.83,8.74-51.23,16.24-75.81,17.91-58.31,46.65-110.79,87.88-155.77,35.82-39.15,78.72-68.72,127-90.8,28.74-13.33,59.14-22.91,90-30a441.35,441.35,0,0,1,57.06-9.16,446.92,446.92,0,0,1,62.48-2.08A466.89,466.89,0,0,1,604.35,103c50,7.08,97.88,20.82,143.28,42.9,49.15,23.74,93.3,54.56,131.2,94.13a289.52,289.52,0,0,1,55.81,83.3c15.83,35.4,24.16,72.89,27.07,111.62,1.67,26.24.42,51.65-5.83,77-7.08,30.41-20.82,58.31-37.9,84.55-1.25,2.09-2.5,4.59-3.75,6.67,5.83-2.92,9.58-7.5,13.33-12.5,33.32-42.48,48.73-91.63,50.81-144.94,1.25-28.32-2.08-55.81-7.91-83.72-8.33-39.15-22.08-75.8-45-108.71-30.83-44.56-70.39-79.13-115.79-107-63.31-38.73-131.62-65-204.51-79.55a489.94,489.94,0,0,0-95.38-9.16,479.16,479.16,0,0,0-48.73,2.49A512.11,512.11,0,0,0,394,71.8C361.53,80.13,330.29,91,300.3,105.53c-44.15,21.25-84.55,47.9-120.79,81.22C145.36,218,116.62,253,94.55,293.38,60.39,356.27,45.4,423.74,44.57,495a296.63,296.63,0,0,0,4.16,54.14c2.92,17.5,5.83,34.57,10.83,51.23a397.82,397.82,0,0,0,47.07,104.13c30.82,48.31,70.8,88.3,117.45,121.62,53.31,38.32,112.87,61.64,176.6,75.39a615.53,615.53,0,0,0,110.37,13.74c15.41.42,31.24,0,47.07-.41a640.2,640.2,0,0,0,68.72-7.09c87-15,165.77-49.14,233.24-106.62q85-71.85,123.29-176.6C985.87,614.5,989.2,604.51,992.12,593.26Zm-464-151.61V652.82c0,5-1.67,11.67.83,14.58,3.33,3.33,10,.42,15.41,1.25q4.38.63,3.75-3.75V526.62c0-2.5-.41-4.58,3.33-4.58,12.92-.83,25.83-1.67,38.74-2.92,20.82-1.66,41.65-3.74,62.47-5.83,3.75-.41,5.42.84,6.67,3.75,2.91,6.67,6.25,13.33,9.58,20,17.08,34.57,34.15,69.56,51.65,104.13.83,2.08,2.08,2.5,4.16,1.67l25-11.25c2.92-1.25,3.33-2.91,1.67-5.41a23.73,23.73,0,0,0-2.09-3.34c-10-20-20-40.4-30-60.39-8.75-18.74-18.33-37.07-27.91-55.39-3.33-6.25-3.75-5.42,3.33-7.92a380.77,380.77,0,0,0,62.06-25.4c24.58-12.92,45-30.41,57.9-55.4,11.24-21.66,8.74-39.15-7.5-57.06-17.91-20-40.82-32.07-66.23-40.4-27.48-9.17-55.81-10.41-84.13-10-9.16,0-15.41,5.42-22.07,10-.84.41-1.67,1.25-.84,2.5.84.83,1.25,1.66,2.92,1.25,7.08-1.67,14.16,0,21.24,0a254.54,254.54,0,0,1,75,10.41c21.24,6.25,40,17.08,53.73,35.4,10.41,13.75,11.25,28.32,2.5,43.32-9.16,16.66-22.91,28.32-39.57,37.07a293.46,293.46,0,0,1-37.07,16.24c-9.16,3.33-18.74,7.08-27.9,10.41-4.17,1.67-6.67,1.25-8.75-3.74-4.17-9.58-8.75-18.33-13.33-27.91-12.49-25.82-25.41-51.65-37.9-77.47-12.91-26.24-25.82-52.48-38.74-79.14-10.41-20.82-21.24-41.23-30.4-62.47-4.58-10-11.25-12.5-20.83-11.66-4.16.41-5.83.83-5.83,5.83C528.55,294.63,528.13,367.93,528.13,441.65ZM880.91,652c-3.75-1.67-6.25,0-8.75,1.25-11.24,5.83-21.65,12.49-33.32,17.08-18.74,7.49-37.07,15-55.81,22.9-51.65,21.66-104.54,40-158.69,53.73-27.07,6.67-54.14,12.08-82.05,16.25-21.66,3.33-42.9,5.41-64.56,7.08a580.52,580.52,0,0,1-65.81,1.25c-17.07-.84-34.15-2.5-50.81-4.58-31.65-4.17-62.89-11.25-92.88-23.33-21.66-8.74-41.65-20-57.06-38.32-23.33-28.32-28.74-60.39-20-95,6.66-25.82,19.16-49.56,33.73-71.64,12.92-19.58,28.74-37.07,44.57-54.15a434.89,434.89,0,0,1,52.06-47.89c26.24-20.41,53.73-39.57,82-57.48,7.5-4.58,15.42-9.16,17.5-19.16.83-3.33,4.58-7.5,2.5-9.16-2.5-2.09-7.08,1.25-10.42,2.91C394,363.35,375.27,374.6,357,385.84c-20,12.08-39.57,24.58-57.9,39.15-19.57,15.42-37.07,32.91-55,50.82-15,15-27.9,31.24-40,48.73a273.19,273.19,0,0,0-32.91,66.22c-8.33,24.16-11.66,49.15-7.49,74.56,4.16,25,14.16,47.06,32.07,65.81,21.66,22.9,48.73,36.23,77.47,46.23,23.74,8.33,47.9,13.33,72.89,17.49,23.32,3.75,46.65,5,70.39,6.25,13.74.83,27.49,0,40.81-.42,22.91-.83,45.4-2.91,67.89-5.83a888.38,888.38,0,0,0,92.89-17.07c42.48-10,84.55-22.5,125.36-39.16,19.58-7.91,39.16-15.82,57.48-26.24,21.66-12.49,42.48-26.65,61.23-43.31C868,662.82,874.25,657.82,880.91,652ZM524.38,442.07V230.49c0-16.66,0-16.66-16.66-15-3.33.42-5.41,1.67-6.66,4.58-12.91,26.24-25.83,52.48-38.74,79.14-12.08,25-24.57,50-36.65,75L389.43,447.9c-9.16,18.75-18.32,37.9-27.49,56.65-2.5,5-.83,8.74,4.59,10.83a35,35,0,0,0,7.08,1.66c24.15,4.17,48.31,5.42,72.88,5.83h52.9c4.17,0,5,.84,5,5V662.4c0,3.75.83,5.42,5,5a43.16,43.16,0,0,1,10.41,0c4.58.42,5.83-.83,5.83-5.41C524.38,589.1,524.38,515.79,524.38,442.07Z"
      transform="translate(0 -0.16)"
    />
    <path
      class="cls-2"
      fill="#e1532e"
      d="M992.12,593.26a234.23,234.23,0,0,1-9.58,31.66c-25.41,70-66.64,128.28-123.29,176.6C791.78,859,713.06,893.15,626,908.14a548.43,548.43,0,0,1-68.72,7.08,445.26,445.26,0,0,1-47.07.42,614.64,614.64,0,0,1-110.37-13.75c-63.73-14.16-123.29-37.48-176.6-75.38C176.6,793.19,137,753.2,105.79,704.89,85,672.4,70,637.41,58.73,600.76c-5-17.08-7.92-34.15-10.83-51.23a334.56,334.56,0,0,1-4.17-54.15c.84-71.22,15.83-138.69,50-201.59,22.08-40.4,50.82-75.8,85-106.62A503.88,503.88,0,0,1,299.47,106a466.2,466.2,0,0,1,93.71-33.74,461.48,461.48,0,0,1,67.06-11.66A479,479,0,0,1,509,58.05a486.91,486.91,0,0,1,95.38,9.17c72.89,14.57,141.2,40.81,204.5,79.55,45.82,27.9,85.39,62.47,115.79,107,22.91,32.9,36.66,70,45,108.71a352.58,352.58,0,0,1,7.91,83.72c-2.08,53.31-17.08,102.46-50.81,144.94-3.75,4.58-7.5,9.58-13.33,12.5,1.25-2.09,2.5-4.59,3.75-6.67,17.07-26.24,30.4-54.14,37.9-84.55,6.25-25.41,7.5-51.23,5.83-77.05-2.92-38.74-11.25-76.22-27.07-111.63A289.62,289.62,0,0,0,878,240.48c-37.9-39.57-82-70.39-131.19-94.13a467.11,467.11,0,0,0-143.28-42.9,481.6,481.6,0,0,0-48.73-3.75,521.84,521.84,0,0,0-62.48,2.09A437.93,437.93,0,0,0,435.25,111a485.6,485.6,0,0,0-90,30c-48.31,22.07-91.21,51.64-127,90.8-41.24,45-70,97.46-87.88,155.77a472,472,0,0,0-16.25,75.8,375.3,375.3,0,0,0-1.25,96.63c8.75,77.47,38.74,145.78,95.38,200.76C227,779,249.9,791.52,272.81,803.6a499.52,499.52,0,0,0,145.78,50c40.82,7.5,82.47,10.83,124.12,8.75,103.29-5,200.34-32.91,287-90.39,66.22-43.73,117.45-101.62,156.61-170.76,1.25-2.09,2.08-4.17,3.33-6.25A13.33,13.33,0,0,1,992.12,593.26Z"
      transform="translate(0 -0.16)"
    />
    <path
      class="cls-3"
      fill="#51275d"
      d="M528.13,441.65V220.91c0-5,2.08-5.83,5.83-5.83,9.58-.84,16.24,1.24,20.83,11.66,9.16,21.24,20.4,41.65,30.4,62.47,12.91,26.24,25.82,52.48,38.74,79.14,12.49,25.82,25.4,51.65,37.9,77.47,4.58,9.16,9.16,18.33,13.33,27.91,2.08,4.58,5,5,8.74,3.74,9.17-3.33,18.75-7.08,27.91-10.41a322.57,322.57,0,0,0,37.07-16.24c16.66-8.75,30-20.41,39.57-37.07,8.33-15,7.91-29.57-2.5-43.32-13.75-18.32-32.49-29.15-53.73-35.4-24.58-7.08-49.15-10.83-75-10.41-7.08,0-14.16-1.67-21.25,0-1.66.41-2.08-.42-2.91-1.25-.83-1.25.42-2.09.83-2.5,6.67-5,12.91-10,22.08-10,28.74-.41,57.06.84,84.13,10,25,8.33,47.9,20.41,66.23,40.4,16.24,17.91,18.74,35.4,7.49,57.06-12.91,25-32.9,42.48-57.89,55.4-20,10.41-40.82,18.32-62.06,25.4-7.08,2.5-6.67,1.67-3.33,7.92,9.58,18.32,19.16,36.65,27.9,55.39,9.58,20.41,20,40.4,30,60.4a9.28,9.28,0,0,0,2.08,3.33c1.67,2.5,1.25,4.16-1.66,5.41l-25,11.25c-2.09.83-2.92.41-4.17-1.67C702.65,606.59,685.57,571.6,668.08,537c-3.34-6.66-6.67-13.32-9.58-20-1.25-2.91-2.92-4.16-6.67-3.75-20.82,2.09-41.65,4.17-62.47,5.83-12.92,1.25-25.83,2.09-38.74,2.92-3.75.42-3.33,2.5-3.33,4.58V664.9c0,3.33-.83,4.17-3.75,3.75-5.41-.42-12.08,2.08-15.41-1.25-2.5-2.5-.83-9.58-.83-14.58C528.13,582.43,528.13,512,528.13,441.65ZM549,293.38h-.83v197c0,7.08,0,7.08,7.08,6.24,16.25-1.25,32.49-2.5,48.32-4.16,12.08-1.25,24.15-2.5,36.23-5,3.75-.83,3.75-2.08,2.09-5-9.17-17.91-17.91-35.82-26.66-54.14Q595.82,389,576.44,349.61,563.33,321.49,549,293.38Z"
      transform="translate(0 -0.16)"
    />
    <path
      class="cls-4"
      fill="#8fd5db"
      d="M880.91,652c-6.66,5.83-12.91,10.83-18.74,16.66-18.75,16.66-39.57,30.82-61.23,43.32-18.33,10.41-37.9,17.91-57.48,26.24-40.4,16.66-82.46,29.15-125.36,39.15-30.83,7.08-61.65,12.91-92.89,17.08-22.49,2.91-45,5.41-67.89,5.83-13.74.41-27.49,1.25-40.81.41-23.33-1.25-47.07-2.91-70.39-6.24-24.58-3.75-49.15-9.17-72.89-17.5-28.74-10.41-55.81-23.74-77.47-46.23-17.5-18.74-27.91-40.82-32.07-65.81-4.17-25.4-.84-50,7.49-74.55,7.92-23.74,19.16-45.4,32.91-66.23a300.44,300.44,0,0,1,40-48.73c17.5-17.49,35.41-35.4,55-50.81C317.38,410,337,397.5,357,385.43c18.32-11.25,37.06-22.08,56.22-32.07,3.34-1.67,7.92-5,10.42-2.92,2.5,1.67-1.67,5.83-2.5,9.16-2.08,10-10,14.16-17.5,19.16-28.32,17.91-55.81,37.07-82,57.48a435,435,0,0,0-52.06,47.9c-15.83,17.07-31.65,34.57-44.57,54.14-14.57,22.5-27.07,45.82-33.73,71.64-8.75,34.57-3.34,66.64,20,95,15.41,18.32,35.4,29.57,57.06,38.31,30,12.08,60.81,19.16,92.88,23.33a419.35,419.35,0,0,0,50.81,4.58c21.66.83,43.74,0,65.81-1.25,21.66-1.67,43.32-4.16,64.56-7.08,27.49-4.16,55-9.58,82.05-16.24,54.56-13.75,107-32.07,158.69-53.73,18.33-7.92,37.07-15,55.81-22.91,11.67-4.58,22.08-11.66,33.32-17.08C874.66,652,877.16,650.32,880.91,652Z"
      transform="translate(0 -0.16)"
    />
    <path
      class="cls-3"
      fill="#51275d"
      d="M524.38,442.07V662.82c0,4.58-1.25,5.83-5.83,5.41a44.21,44.21,0,0,0-10.41,0c-4.17.42-5-1.25-5-5V528.7c0-4.16-1.25-5.41-5-5-17.49.41-35.4.41-52.9,0-24.57-.42-48.73-1.67-72.88-5.84a35,35,0,0,1-7.08-1.66c-5.42-2.08-7.09-5.83-4.59-10.83,9.17-19.16,18.33-37.9,27.49-56.64L424.42,375c12.49-25,24.57-50,36.65-75,12.91-26.24,25.83-52.48,38.74-79.13,1.66-2.92,3.33-4.17,6.66-4.59,16.66-1.66,16.66-1.66,16.66,15C524.38,301.29,524.38,371.68,524.38,442.07ZM503.56,293c-1.67,2.5-2.09,3.33-2.92,4.58-15.41,33.32-32.07,65.81-48.31,98.72C440.66,420,429,443.32,417.76,467.06c-5,10-9.58,20-14.58,30-1.67,2.92-.42,3.33,2.08,3.33,31.24,0,62.89.42,94.13-1.25,3.33,0,4.17-1.25,4.17-4.16V293Z"
      transform="translate(0 -0.16)"
    />
    <path
      class="cls-5"
      fill="none"
      d="M549,293.38c9.17,18.74,18.75,37.48,27.91,56.23Q596.22,389,615.6,428.33c8.74,17.91,17.91,36.23,26.65,54.14,1.25,2.92,1.25,4.17-2.08,5-12.08,2.92-24.16,4.17-36.24,5-16.24,1.25-32.48,2.5-48.31,4.16-7.08.42-7.08.42-7.08-6.24v-197Z"
      transform="translate(0 -0.16)"
    />
    <path
      class="cls-6"
      fill="none"
      d="M503.56,293V495c0,3.33-.84,4.16-4.17,4.16-31.24,1.67-62.89.84-94.13,1.25-2.5,0-3.75-.41-2.08-3.33,5-10,9.58-20,14.58-30,11.66-23.74,22.9-47.48,34.57-70.8,16.24-32.91,32.9-65.81,48.31-98.72A15.72,15.72,0,0,1,503.56,293Z"
      transform="translate(0 -0.16)"
    />
  </svg>